HIERARCHY
ROOT Pelvis
{
	OFFSET 0.000000 0.000000 0.000000
	CHANNELS 6 Xposition Yposition Zposition Xrotation Yrotation Zrotation
	JOINT LeftUpLeg_virtual
	{
		OFFSET 0.000000 0.000000 0.000000
		CHANNELS 3 Xrotation Yrotation Zrotation
		JOINT LeftUpLeg
		{
			OFFSET 18.735201 -5.666702 -4.541200
			CHANNELS 3 Xrotation Yrotation Zrotation
			JOINT LeftLeg
			{
				OFFSET -0.021200 -31.938179 0.493100
				CHANNELS 3 Xrotation Yrotation Zrotation
				JOINT LeftFoot
				{
					OFFSET 0.021200 -31.938179 -4.336299
					CHANNELS 3 Xrotation Yrotation Zrotation
					JOINT LeftToeBase
					{
						OFFSET 0.943001 -26.722000 15.023500
						CHANNELS 3 Xrotation Yrotation Zrotation
						End Site
						{
							OFFSET 0 0 0
						}
					}
				}
			}
		}
	}
	JOINT RightUpLeg_virtual
	{
		OFFSET 0.000000 0.000000 0.000000
		CHANNELS 3 Xrotation Yrotation Zrotation
		JOINT RightUpLeg
		{
			OFFSET -18.735201 -5.666702 -4.541200
			CHANNELS 3 Xrotation Yrotation Zrotation
			JOINT RightLeg
			{
				OFFSET 0.018946 -31.938133 0.493100
				CHANNELS 3 Xrotation Yrotation Zrotation
				JOINT RightFoot
				{
					OFFSET -0.018946 -31.938126 -4.336299
					CHANNELS 3 Xrotation Yrotation Zrotation
					JOINT RightToeBase
					{
						OFFSET -0.943001 -26.722004 15.023500
						CHANNELS 3 Xrotation Yrotation Zrotation
						End Site
						{
							OFFSET 0 0 0
						}
					}
				}
			}
		}
	}
	JOINT Hips_virtual
	{
		OFFSET 0.000000 0.000000 0.000000
		CHANNELS 3 Xrotation Yrotation Zrotation
		JOINT Hips
		{
			OFFSET -0.000000 -0.000000 -0.000000
			CHANNELS 3 Xrotation Yrotation Zrotation
			JOINT Spine
			{
				OFFSET 0.000000 10.199997 -0.299500
				CHANNELS 3 Xrotation Yrotation Zrotation
				JOINT Spine1
				{
					OFFSET 0.000000 11.900002 -1.516600
					CHANNELS 3 Xrotation Yrotation Zrotation
					JOINT Spine2
					{
						OFFSET 0.000000 13.600006 -2.842500
						CHANNELS 3 Xrotation Yrotation Zrotation
						JOINT Neck_virtual
						{
							OFFSET 0.000000 0.000000 0.000000
							CHANNELS 3 Xrotation Yrotation Zrotation
							JOINT Neck
							{
								OFFSET 0.000000 9.624100 -2.890100
								CHANNELS 3 Xrotation Yrotation Zrotation
								JOINT Head
								{
									OFFSET 0.000000 14.068802 -1.351900
									CHANNELS 3 Xrotation Yrotation Zrotation
									End Site
									{
										OFFSET 0 0 0
									}
								}
							}
						}
						JOINT LeftShoulder_virtual
						{
							OFFSET 0.000000 0.000000 0.000000
							CHANNELS 3 Xrotation Yrotation Zrotation
							JOINT LeftShoulder
							{
								OFFSET 15.263000 10.923401 -0.547700
								CHANNELS 3 Xrotation Yrotation Zrotation
								JOINT LeftArm
								{
									OFFSET 25.438599 -2.830597 -13.032500
									CHANNELS 3 Xrotation Yrotation Zrotation
									JOINT LeftForeArm
									{
										OFFSET 29.960503 0.000000 0.000000
										CHANNELS 3 Xrotation Yrotation Zrotation
										JOINT LeftHand
										{
											OFFSET 27.849251 0.000000 0.000000
											CHANNELS 3 Xrotation Yrotation Zrotation
											End Site
											{
												OFFSET 0 0 0
											}
										}
									}
								}
							}
						}
						JOINT RightShoulder_virtual
						{
							OFFSET 0.000000 0.000000 0.000000
							CHANNELS 3 Xrotation Yrotation Zrotation
							JOINT RightShoulder
							{
								OFFSET -15.263000 10.923401 -0.547700
								CHANNELS 3 Xrotation Yrotation Zrotation
								JOINT RightArm
								{
									OFFSET -25.438599 -2.830597 -13.032500
									CHANNELS 3 Xrotation Yrotation Zrotation
									JOINT RightForeArm
									{
										OFFSET -29.960503 0.000000 0.000000
										CHANNELS 3 Xrotation Yrotation Zrotation
										JOINT RightHand
										{
											OFFSET -27.849251 0.000000 0.000000
											CHANNELS 3 Xrotation Yrotation Zrotation
											End Site
											{
												OFFSET 0 0 0
											}
										}
									}
								}
							}
						}
					}
				}
			}
		}
	}
}
MOTION
Frames: 5
Frame Time: 0.03333333
0.049034 95.261009 4.396929 0.000000 0.000000 0.000000 -3.753863 -5.231598 -3.174703 -14.964682 13.503363 12.520497 20.413689 1.789435 4.640092 -2.578164 1.107092 -9.506670 0.000000 0.000000 0.000000 -3.753863 -5.231598 -3.174703 4.367354 -10.114953 2.838654 4.869810 -9.673559 -3.267167 -4.784396 -1.880458 4.146743 0.000000 0.000000 0.000000 -3.753863 -5.231598 -3.174703 0.000000 0.000000 0.000000 3.311634 1.529444 2.151187 1.151563 0.341256 1.563088 0.000000 0.000000 0.000000 1.124399 0.369601 1.558066 2.249490 -0.040871 0.188048 0.000000 0.000000 0.000000 1.124399 0.369601 1.558066 1.046818 -17.441242 -12.316047 3.916270 -19.989266 -69.765232 0.000002 -1.459368 -0.000008 0.000000 0.000000 0.000000 1.124399 0.369601 1.558066 1.209147 15.345166 14.705933 13.158850 27.555124 58.785184 -0.000002 6.693738 0.000011 0.000000 0.000000 0.000000 
0.043941 95.261192 4.385632 0.000000 0.000000 0.000000 -3.775408 -5.377902 -3.209151 -14.947113 13.511386 12.582216 20.496161 1.913107 4.612612 -2.651633 1.110342 -9.512019 0.000000 0.000000 0.000000 -3.775408 -5.377902 -3.209151 4.341797 -10.118924 2.890055 4.863088 -9.315858 -3.314876 -4.726091 -2.086549 4.118637 0.000000 0.000000 0.000000 -3.775408 -5.377902 -3.209151 0.000000 0.000000 0.000000 3.311619 1.529693 2.151659 1.151563 0.341255 1.563088 0.000000 0.000000 0.000000 1.124399 0.369602 1.558065 2.255508 -0.040750 0.183647 0.000000 0.000000 0.000000 1.124399 0.369602 1.558065 1.048150 -17.435436 -12.315649 3.889505 -20.129834 -69.771018 0.000004 -1.500338 0.000004 0.000000 0.000000 0.000000 1.124399 0.369602 1.558065 1.208452 15.358336 14.695765 13.135321 27.547107 58.785136 0.000001 6.665727 -0.000000 0.000000 0.000000 0.000000 
0.037637 95.258972 4.375753 0.000000 0.000000 0.000000 -3.798566 -5.529568 -3.242842 -14.929988 13.519526 12.646491 20.589631 2.040724 4.584399 -2.733012 1.114462 -9.522785 0.000000 0.000000 0.000000 -3.798566 -5.529568 -3.242842 4.295996 -10.116477 2.935991 4.899204 -8.974990 -3.360919 -4.689323 -2.282661 4.094489 0.000000 0.000000 0.000000 -3.798566 -5.529568 -3.242842 0.000000 0.000000 0.000000 3.311627 1.530025 2.151424 1.151564 0.341254 1.563088 0.000000 0.000000 0.000000 1.124399 0.369602 1.558065 2.262220 -0.040101 0.179541 0.000000 0.000000 0.000000 1.124399 0.369602 1.558065 1.049203 -17.430819 -12.315336 3.861913 -20.202542 -69.781324 -0.000002 -1.523109 0.000011 0.000000 0.000000 0.000000 1.124399 0.369602 1.558065 1.206564 15.367494 14.694092 13.125058 27.554843 58.770759 0.000002 6.622046 -0.000017 0.000000 0.000000 0.000000 
0.030412 95.255920 4.367630 0.000000 0.000000 0.000000 -3.823082 -5.686443 -3.277101 -14.910093 13.529123 12.713791 20.687043 2.171235 4.555075 -2.819225 1.118965 -9.537717 0.000000 0.000000 0.000000 -3.823082 -5.686443 -3.277101 4.244711 -10.114144 2.980085 4.949795 -8.626229 -3.404862 -4.659737 -2.480078 4.069698 0.000000 0.000000 0.000000 -3.823082 -5.686443 -3.277101 0.000000 0.000000 0.000000 3.311631 1.530369 2.151233 1.151564 0.341256 1.563088 0.000000 0.000000 0.000000 1.124400 0.369600 1.558065 2.269209 -0.039483 0.175744 0.000000 0.000000 0.000000 1.124400 0.369600 1.558065 1.050084 -17.426985 -12.315071 3.834572 -20.228949 -69.793906 -0.000002 -1.533929 -0.000019 0.000000 0.000000 0.000000 1.124400 0.369600 1.558065 1.203737 15.373912 14.698707 13.129135 27.577813 58.738076 0.000003 6.568087 -0.000003 0.000000 0.000000 0.000000 
0.022266 95.251900 4.361187 0.000000 0.000000 0.000000 -3.848757 -5.848387 -3.312335 -14.889406 13.540136 12.784360 20.791371 2.304529 4.525201 -2.911674 1.123877 -9.555901 0.000000 0.000000 0.000000 -3.848757 -5.848387 -3.312335 4.188343 -10.110850 3.022884 5.013538 -8.272048 -3.446594 -4.636673 -2.677707 4.044093 0.000000 0.000000 0.000000 -3.848757 -5.848387 -3.312335 0.000000 0.000000 0.000000 3.311638 1.530738 2.151075 1.151563 0.341255 1.563088 0.000000 0.000000 0.000000 1.124398 0.369603 1.558064 2.276397 -0.037869 0.172480 0.000000 0.000000 0.000000 1.124398 0.369603 1.558064 1.050918 -17.423338 -12.314824 3.808591 -20.203677 -69.807928 -0.000009 -1.531671 -0.000011 0.000000 0.000000 0.000000 1.124398 0.369603 1.558064 1.199732 15.377517 14.710617 13.152622 27.622917 58.680512 -0.000007 6.503554 0.000008 0.000000 0.000000 0.000000 
